<?xml version="1.0" encoding="UTF-8"?>
<svg width="84px" height="84px" viewBox="0 0 84 84" version="1.1" xmlns="http://www.w3.org/2000/svg" xmlns:xlink="http://www.w3.org/1999/xlink">
    <!-- Generator: Sketch 61 (89581) - https://sketch.com -->
    <title>Migration Assistant</title>
    <desc>Created with Sketch.</desc>
    <defs>
        <linearGradient x1="0.449220059%" y1="0.448479178%" x2="100%" y2="100%" id="linearGradient-1">
            <stop stop-color="#189EFF" offset="0.0554265203%"></stop>
            <stop stop-color="#4059F0" offset="100%"></stop>
        </linearGradient>
    </defs>
    <g id="Migration-Assistant" stroke="none" stroke-width="1" fill="none" fill-rule="evenodd">
        <g id="icon-background" fill="url(#linearGradient-1)" fill-rule="nonzero">
            <path d="M8,0 L76,0 C80.418278,0 84,3.581722 84,8 L84,76 C84,80.418278 80.418278,84 76,84 L8,84 C3.581722,84 0,80.418278 0,76 L0,8 C0,3.581722 3.581722,0 8,0 Z" id="Rectangle"></path>
        </g>
        <g id="Icon" fill="#FFFFFF" fill-rule="nonzero">
            <g id="migration-profile">
                <path d="M37.5338657,62.1776147 C37.5876561,60.8665394 37.7368113,59.6241816 37.980562,58.450035 C38.1489517,57.6389022 37.6279055,56.8448423 36.8167727,56.6764526 C36.0056399,56.5080629 35.2115801,57.0291091 35.0431903,57.8402419 C34.765437,59.1781793 34.5967592,60.5831459 34.5363875,62.0546353 C34.5024276,62.8823661 35.1459061,63.5809044 35.9736369,63.6148642 C36.8013677,63.648824 37.4999059,63.0053455 37.5338657,62.1776147 Z M40.3894991,52.4881879 C41.0525574,51.4731217 41.8317187,50.5339716 42.7286687,49.6694171 C43.3251273,49.094501 43.3425909,48.1449141 42.7676748,47.5484554 C42.1927586,46.9519968 41.2431717,46.9345331 40.6467131,47.5094493 C39.5884482,48.5294925 38.6649375,49.6426319 37.8778665,50.8475472 C37.4248161,51.5411154 37.6197943,52.4706334 38.3133625,52.9236838 C39.0069307,53.3767342 39.9364487,53.1817561 40.3894991,52.4881879 Z M48.0755877,46.0905941 C49.2010328,45.6032514 50.37079,45.2420941 51.5867402,45.0067024 C52.4000675,44.8492531 52.9317616,44.0622832 52.7743123,43.248956 C52.616863,42.4356287 51.8298932,41.9039346 51.0165659,42.0613839 C49.5874087,42.3380496 48.2090886,42.7635998 46.8834868,43.3376147 C46.1232725,43.6668042 45.773858,44.5499405 46.1030475,45.3101548 C46.4322371,46.0703691 47.3153734,46.4197836 48.0755877,46.0905941 Z M58.1372714,44.8874137 C59.2914463,45.0452687 60.4805583,45.2917078 61.7046181,45.6272596 C62.5035694,45.8462762 63.3287955,45.3761463 63.5478122,44.577195 C63.7668288,43.7782437 63.2966989,42.9530176 62.4977476,42.7340009 C61.1491138,42.3642997 59.8311253,42.0911514 58.543793,41.9150846 C57.723007,41.8028268 56.9666255,42.3772023 56.8543677,43.1979883 C56.7421098,44.0187744 57.3164854,44.7751559 58.1372714,44.8874137 Z" id="Path-6" transform="translate(49.068332, 52.758609) rotate(-180.000000) translate(-49.068332, -52.758609) "></path>
                <rect id="Rectangle" x="51" y="23.1760382" width="14" height="14" rx="7"></rect>
                <path d="M23.8388248,42.962469 C23.8108162,41.6395706 23.8719759,40.3806325 24.0216243,39.1854486 C24.1245475,38.3634399 23.5416136,37.6136344 22.7196049,37.5107111 C21.8975962,37.4077878 21.1477907,37.9907218 21.0448674,38.8127305 C20.8766965,40.1558472 20.8084662,41.5603295 20.8394969,43.0259711 C20.8570325,43.8542126 21.5426704,44.5114195 22.3709119,44.4938839 C23.1991534,44.4763483 23.8563604,43.7907105 23.8388248,42.962469 Z M25.8657422,32.9855636 C26.4253137,31.8934072 27.1010731,30.8797092 27.8942749,29.942602 C28.4294951,29.3102802 28.3507788,28.3638004 27.7184571,27.8285802 C27.0861354,27.2933599 26.1396556,27.3720762 25.6044353,28.004398 C24.6631769,29.1164227 23.8598752,30.3214453 23.1957851,31.6175983 C22.8180319,32.3548865 23.1094927,33.2588063 23.846781,33.6365595 C24.5840693,34.0143126 25.487989,33.7228519 25.8657422,32.9855636 Z M32.8943333,25.8598251 C34.0061186,25.2267811 35.1331857,24.7280896 36.2727424,24.3548389 C37.0600148,24.0969755 37.4891857,23.2497254 37.2313222,22.4624529 C36.9734588,21.6751805 36.1262088,21.2460096 35.3389363,21.5038731 C34.0085963,21.9396129 32.6970271,22.5199409 31.4099166,23.252814 C30.6900103,23.6627243 30.438709,24.5786216 30.8486193,25.2985279 C31.2585297,26.0184341 32.174427,26.2697355 32.8943333,25.8598251 Z M42.6728018,23.5308997 C43.9414137,23.6059903 45.1627074,23.8135526 46.3205392,24.1246526 C47.1205896,24.3396196 47.9434238,23.8653158 48.1583908,23.0652654 C48.3733579,22.265215 47.8990541,21.4423807 47.0990036,21.2274137 C45.7513319,20.8653053 44.32995,20.6237374 42.8500651,20.5361413 C42.0230854,20.4871914 41.3130041,21.1179091 41.2640543,21.9448888 C41.2151044,22.7718685 41.8458221,23.4819498 42.6728018,23.5308997 Z" id="Path-6"></path>
            </g>
            <path d="M27.2617676,47.3244762 L26.6971797,49.2431321 C26.1512779,49.0824939 25.5816963,49 25,49 L25,47 C25.7733131,47 26.5329987,47.1100271 27.2617676,47.3244762 Z M30.266475,48.9778924 L28.949339,50.4829348 C28.5169819,50.1045581 28.032761,49.7897034 27.5114849,49.5490625 L28.3497503,47.7332126 C29.0452044,48.0542606 29.6905987,48.473915 30.266475,48.9778924 Z M32.3047498,51.7337439 L30.4793655,52.5510396 C30.2447191,52.0269698 29.935419,51.5392068 29.5619777,51.1025732 L31.0818935,49.8026287 C31.5793467,50.3842588 31.9916561,51.0344666 32.3047498,51.7337439 Z M30.9996716,55.0635435 L31,55 C31,54.4687832 30.9312064,53.9476057 30.7968404,53.445173 L32.7289421,52.9284691 C32.8783901,53.4872973 32.9669927,54.0629839 32.9923756,54.6479601 L32.9995647,55.0842244 L30.9996716,55.0635435 Z M32.2388808,58.4095495 L30.4300372,57.5562705 C30.6739163,57.0392777 30.8427395,56.4889754 30.9302383,55.918768 L32.907099,56.2221186 C32.7902579,56.983543 32.5646349,57.718992 32.2388808,58.4095495 Z M30.1154478,61.1510201 L28.8358884,59.6139034 C29.2775396,59.2462546 29.6649612,58.8169904 29.9851899,58.3401481 L31.6455304,59.4551681 C31.2190356,60.0902477 30.7033606,60.6616172 30.1154478,61.1510201 Z M27.077365,62.7273795 L26.5591928,60.795671 C27.1146461,60.6466732 27.6438407,60.4183272 28.1324379,60.1185726 L29.178302,61.8233214 C28.5263165,62.2233147 27.8194937,62.5283068 27.077365,62.7273795 Z M23.6942232,62.893807 L24.0185316,60.9202761 C24.340538,60.9731911 24.6683665,61 25,61 C25.2258241,61 25.4499133,60.9875691 25.6716479,60.962917 L25.8926428,62.9506698 C25.5975619,62.9834764 25.2996951,63 25,63 C24.5596178,63 24.1233294,62.9643216 23.6942232,62.893807 Z M20.5173673,61.6270038 L21.6392418,59.9712871 C22.114225,60.2931245 22.6328598,60.5454059 23.1805525,60.7194557 L22.5748282,62.6255244 C21.8432181,62.3930281 21.1508514,62.0562375 20.5173673,61.6270038 Z M18.1573192,59.1465812 L19.8669078,58.1086473 C20.1649597,58.5995708 20.5324481,59.045936 20.9569995,59.4333619 L19.6088555,60.9106932 C19.0437054,60.3949634 18.5544435,59.8006876 18.1573192,59.1465812 Z M17.0419694,55.8237257 L19.0315576,55.6199144 C19.0904864,56.1951729 19.2313559,56.7532212 19.4485851,57.2811978 L17.5990157,58.0421793 C17.3088137,57.3368419 17.1205881,56.5911948 17.0419694,55.8237257 Z M17.3998657,52.4963455 L19.2995427,53.1218273 C19.1213818,53.6629271 19.0209497,54.2296157 19.0029445,54.8099117 L17.0039065,54.7478864 C17.0278749,53.9753995 17.1619313,53.2189862 17.3998657,52.4963455 Z M19.1511714,49.5418301 L20.6131183,50.9066419 C20.220965,51.3267051 19.8905685,51.8007139 19.6331272,52.3139204 L17.8454421,51.4171585 C18.1887698,50.7327383 18.6289721,50.1011948 19.1511714,49.5418301 Z M21.9717794,47.593288 L22.7292513,49.4442975 C22.1978007,49.6617782 21.7005334,49.9550453 21.2522639,50.3141111 L20.0019181,48.7531385 C20.5992345,48.2746855 21.2623882,47.8835857 21.9717794,47.593288 Z M25,47 L25,49 C24.5369674,49 24.081494,49.0522641 23.6392518,49.1547381 L23.1877844,47.20636 C23.777806,47.0696434 24.3847371,47 25,47 Z" id="Rectangle" transform="translate(25.001736, 55.000000) rotate(-360.000000) translate(-25.001736, -55.000000) "></path>
        </g>
    </g>
</svg>