<?xml version="1.0" encoding="UTF-8"?>
<svg viewBox="0 0 461 136" xmlns="http://www.w3.org/2000/svg">
<g transform="translate(1.805 -.304)" fill="none" fill-rule="evenodd">
<path d="m328.45 101.17h129.04m-457.49 0h129.94" stroke="#D1D9E0" stroke-linecap="round" stroke-width="3"/>
<g transform="translate(118.21)">
<path d="m22.553 0.76404h176.88c3.3137 0 6 2.6863 6 6v113.26l11.29 0.14624 0.43805 8.7712c0.16529 3.3096-2.3837 6.1265-5.6933 6.2918-0.099681 0.004978-0.19947 0.007468-0.29928 0.007468h-200.66c-3.3137 0-6-2.6863-6-6v-8.7258l12.042-0.67899v-113.07c0-3.3137 2.6863-6 6-6z" fill="#FFF" fill-rule="nonzero"/>
<g transform="translate(1.503 2.292)" stroke="#D1D9E0" stroke-linecap="round" stroke-linejoin="round" stroke-width="3">
<path d="m4.5102 127.6v-7.7451c0-0.51209 0.41141-0.92728 0.91884-0.92728h10.337c0.50743 0 0.91884-0.41519 0.91884-0.92728v-113.13c0-2.6886 2.1597-4.8682 4.8239-4.8682h176.05c2.666 0 4.8262 2.1821 4.8239 4.8721l-0.090276 113.35c-4.59e-4 0.51232 0.41118 0.92797 0.91884 0.92797h10.107c0.50743 0 0.91884 0.41519 0.91884 0.92728v7.4452"/>
<path d="m25.558 119.04v-105.34c0-2.5034 1.9497-4.5331 4.3547-4.5331h158.92c2.4064 0 4.3565 2.0318 4.3547 4.5368l-0.080596 105.25-67.09 0.023882c-0.47393 2.31e-4 -0.87002 0.39601-0.91411 0.91352l-0.18829 2.2034c-0.044317 0.51774-0.44041 0.91329-0.91457 0.91329l-30.474 2.32e-4c-0.47393 0-0.87025-0.39578-0.91434-0.91329l-0.18829-2.2027c-0.044316-0.51797-0.44064-0.91376-0.9148-0.91352l-60.512 0.023186m-30.996 12.542l217.99-0.12683"/>
</g>
</g>
<g transform="translate(202.12 40.443)">
<g transform="translate(1.797)">
<path d="m27.362 2.5807l21.759 40.077c0.92231 1.6988 0.29288 3.8236-1.4059 4.7459-0.51263 0.27832-1.0867 0.42411-1.67 0.42411h-42.741c-1.933 0-3.5-1.567-3.5-3.5 0-0.56543 0.13699-1.1224 0.39925-1.6234l20.982-40.077c0.89656-1.7125 3.0116-2.3739 4.7241-1.4774 0.61543 0.3222 1.1211 0.82026 1.4525 1.4308z" stroke="#FFB75D" stroke-linecap="round" stroke-linejoin="round" stroke-width="3"/>
<ellipse cx="24.254" cy="38.309" rx="1.797" ry="1.782" fill="#FFB75D" fill-rule="nonzero"/>
</g>
<path d="m26.051 19.6v12.473" stroke="#FFB75D" stroke-linecap="round" stroke-linejoin="round" stroke-width="3"/>
</g>
</g>
</svg>
