<?xml version="1.0" encoding="UTF-8"?>
<svg width="207px" height="140px" viewBox="0 0 207 140" version="1.1" xmlns="http://www.w3.org/2000/svg" xmlns:xlink="http://www.w3.org/1999/xlink">
    <!-- Generator: sketchtool 60 (101010) - https://sketch.com -->
    <title>48E4B881-82CA-428E-B009-DFDF36A001DC@1.00x</title>
    <desc>Created with sketchtool.</desc>
    <defs>
        <linearGradient x1="-10.6073289%" y1="20.577567%" x2="82.1893601%" y2="80.9802827%" id="linearGradient-1">
            <stop stop-color="#B46FFF" offset="0%"></stop>
            <stop stop-color="#4059F0" offset="100%"></stop>
        </linearGradient>
        <polygon id="path-2" points="0 0 12 0 12 16 0 16"></polygon>
        <rect id="path-4" x="0" y="23.4" width="14.4313725" height="14.4390244" rx="7.21568627"></rect>
        <mask id="mask-5" maskContentUnits="userSpaceOnUse" maskUnits="objectBoundingBox" x="0" y="0" width="14.4313725" height="14.4390244" fill="white">
            <use xlink:href="#path-4"></use>
        </mask>
    </defs>
    <g id="1.-Wizard-migration" stroke="none" stroke-width="1" fill="none" fill-rule="evenodd">
        <g id="1.0-Welcome---EN-V1" transform="translate(-895.000000, -203.000000)">
            <g id="App-Symbol" transform="translate(888.957092, 185.836788)">
                <g id="blob-shape-(3)" transform="translate(109.500000, 83.500000) rotate(7.000000) translate(-109.500000, -83.500000) translate(8.000000, 12.000000)" fill="#E8EDF7" fill-rule="nonzero">
                    <path d="M174.433645,10.5180204 C194.14034,22.8779609 207.579137,46.5985276 200.886297,65.5329046 C194.193457,84.4146861 167.368981,98.5102778 151.539883,112.448083 C135.710786,126.438484 130.930187,140.376289 122.590696,142.269727 C114.251205,144.21576 102.459059,134.170021 84.2396617,131.803224 C66.0202647,129.436427 41.4267345,134.801167 23.4729264,125.807338 C5.57223595,116.813509 -5.68873249,93.4611106 4.45676266,80.3648332 C14.6553756,67.2159603 46.2604521,64.4283993 66.2327358,52.1210542 C86.2050194,39.8137092 94.5445102,18.0917712 111.648434,7.67786387 C128.805475,-2.73604345 154.72695,-1.78932461 174.433645,10.5180204 Z" id="Path"></path>
                </g>
                <g id="Migration-Assistant" transform="translate(67.000000, 47.000000)">
                    <rect id="Rectangle" fill="url(#linearGradient-1)" fill-rule="nonzero" x="0" y="0" width="84" height="84" rx="9"></rect>
                    <g id="Group-3" transform="translate(63.000000, 60.000000)">
                        <mask id="mask-3" fill="white">
                            <use xlink:href="#path-2"></use>
                        </mask>
                        <g id="Clip-2"></g>
                        <path d="M7.98418838,10.1666756 C7.98418838,8.97619073 7.08649637,8.14283419 5.99991499,8.14283419 C4.88970119,8.14283419 4.0156416,9.00001071 4.0156416,10.1666756 C4.0156416,11.3333405 4.88970119,12.238157 5.99991499,12.238157 C7.08649637,12.238157 7.98418838,11.3571605 7.98418838,10.1666756 M12,10.1904956 C12,13.6190303 9.1180346,16 5.99991499,16 C2.85816296,16 0,13.6190303 0,10.1428556 C0,8.30957405 0.779529902,7.07144923 2.1258979,5.26181627 L6.02354741,0 L10.8187189,0 L7.34645301,4.73811946 C9.6848727,5.04760783 12,7.11908919 12,10.1904956" id="Fill-1" fill="#FFFFFF" mask="url(#mask-3)"></path>
                    </g>
                    <g id="SW5" transform="translate(20.000000, 19.000000)" fill-rule="nonzero">
                        <g id="Group-3" transform="translate(0.500000, 1.000000)">
                            <g id="Group-4">
                                <rect id="Rectangle" fill="#FFFFFF" x="30.0135747" y="0.5" width="14.4313725" height="14.4390244" rx="7.21568627"></rect>
                                <use id="Rectangle" stroke="#FFFFFF" mask="url(#mask-5)" stroke-width="4" stroke-dasharray="2,1" transform="translate(7.215686, 30.619512) rotate(-360.000000) translate(-7.215686, -30.619512) " xlink:href="#path-4"></use>
                            </g>
                        </g>
                        <g id="Group" transform="translate(2.500000, 0.000000)" stroke="#FFFFFF" stroke-dasharray="4,7" stroke-linecap="round" stroke-width="3">
                            <path d="M0.839160839,21.8181818 C0.675903532,14.1072217 3.39429842,8.30971842 8.9943455,4.42567198 C19.100743,-2.58386145 28.6210271,2.79757676 28.6210271,2.79757676" id="Path-6"></path>
                            <path d="M13.5351266,39.2781213 C13.8141704,32.4767575 16.5268788,27.2913806 21.6732518,23.7219907 C26.6981702,20.2368384 32.6741472,19.4437171 39.6011828,21.3426265" id="Path-6" transform="translate(26.568155, 29.808078) rotate(-180.000000) translate(-26.568155, -29.808078) "></path>
                        </g>
                    </g>
                </g>
            </g>
        </g>
    </g>
</svg>