<?xml version="1.0" encoding="UTF-8"?>
<svg viewBox="0 0 507 152" xmlns="http://www.w3.org/2000/svg">
<g transform="translate(2.97)" fill="none" fill-rule="evenodd">
<path d="m0 112.57h502.05" opacity=".342" stroke="#D8DDE6" stroke-linecap="round" stroke-width="4"/>
<g transform="translate(129.72)">
<path d="m24.219 0.84559h195.42c3.3137 0 6 2.6863 6 6v127.29l12.398 0.16345 0.51767 10.549c0.16241 3.3097-2.389 6.1244-5.6987 6.2869-0.09795 0.004807-0.196 0.007211-0.29407 0.007211h-221.57c-3.3137 0-6-2.6863-6-6v-10.458l13.224-0.75887v-127.08c0-3.3137 2.6863-6 6-6z" fill="#FFF" fill-rule="nonzero"/>
<g transform="translate(1.653 2.562)" opacity=".6" stroke-linecap="round" stroke-linejoin="round" stroke-width="4">
<path d="m0 147.05l239.69-0.166" stroke="#D8DDE6"/>
<path d="m4.9592 144.41v-10.37c0-0.5727 0.45236-1.037 1.0103-1.037h11.366c0.55794 0 1.0103-0.46433 1.0103-1.037v-126.52c0-3.0068 2.3747-5.4444 5.3041-5.4444h193.57c2.9314 0 5.3066 2.4404 5.3041 5.4488l-0.099262 126.77c-5.06e-4 0.57296 0.45211 1.0378 1.0103 1.0378h11.113c0.55794 0 1.0103 0.46433 1.0103 1.037v10.889" stroke="#CFD7E6"/>
<path d="m27.276 133.1v-117.84c0-2.8005 2.1438-5.0711 4.7882-5.0711h174.74c2.6459 0 4.7902 2.2729 4.7882 5.0752l-0.088619 117.74-72.942 0.026716c-0.52111 2.59e-4 -0.95663 0.44301-1.0051 1.0219l-0.20703 2.4649c-0.048728 0.57919-0.48425 1.0217-1.0056 1.0217l-33.507 2.59e-4c-0.52111 0-0.95688-0.44276-1.0054-1.0217l-0.20703-2.4641c-0.048727-0.57945-0.4845-1.0222-1.0059-1.0219l-69.016 0.025938" stroke="#CFD7E6"/>
</g>
</g>
<g transform="translate(227.77 50)" stroke="#788A9B" stroke-linecap="round" stroke-width="3">
<path d="m10.708 1.1503l-9.5152 9.3728c-0.76323 0.7518-1.193 1.7784-1.193 2.8497l-1.7764e-15 20.254c1.312e-16 1.0713 0.42975 2.0979 1.193 2.8497l9.5152 9.3728c0.74834 0.73714 1.7566 1.1503 2.807 1.1503h19.97c1.0504 0 2.0587-0.41319 2.807-1.1503l9.5152-9.3728c0.76323-0.7518 1.193-1.7784 1.193-2.8497v-20.254c0-1.0713-0.42975-2.0979-1.193-2.8497l-9.5152-9.3728c-0.74834-0.73714-1.7566-1.1503-2.807-1.1503l-19.97-7.1054e-15c-1.0504 1.9296e-16 -2.0587 0.41319-2.807 1.1503z" stroke-linejoin="round"/>
<path d="m17 30.435l13.435-13.435"/>
<path transform="matrix(-1 0 0 1 47.435 0)" d="m17 30.435l13.435-13.435"/>
</g>
</g>
</svg>
