<?xml version="1.0" encoding="UTF-8"?>
<svg viewBox="0 0 604 179" xmlns="http://www.w3.org/2000/svg" xmlns:xlink="http://www.w3.org/1999/xlink">
<defs>
<linearGradient id="e" x1="100%" x2="0%" y1="96.229%">
<stop stop-color="#ADCAEE" offset="0"/>
<stop stop-color="#C6EAF6" offset="1"/>
</linearGradient>
<linearGradient id="a" x1="50%" x2="50%" y2="100%">
<stop stop-color="#3DB3F8" offset="0"/>
<stop stop-color="#2D84D5" offset="1"/>
</linearGradient>
<circle id="d" cx="18" cy="18" r="18"/>
<polygon id="c" points="0.029 0.085 16.536 0.085 16.536 4.253 0.029 4.253"/>
</defs>
<g transform="translate(2)" fill="none" fill-rule="evenodd">
<path d="m0 133h600" opacity=".34" stroke="#CFD7E6" stroke-linecap="round" stroke-width="4"/>
<g transform="translate(154)">
<path d="m27.743 0.9958h235.54c3.3137 0 6 2.6863 6 6v150.96l14.796 0.19248 0.6732 13.537c0.16458 3.3096-2.385 6.126-5.6946 6.2906-0.099259 0.004936-0.19862 0.007406-0.29801 0.007406h-266.8c-3.3137 0-6-2.6863-6-6v-13.382l15.782-0.89366v-150.71c0-3.3137 2.6863-6 6-6z" fill="#FFF" fill-rule="nonzero"/>
<g transform="translate(1.973 3.017)" opacity=".6" stroke-linecap="round" stroke-linejoin="round" stroke-width="4">
<path d="m0 173.14l286.05-0.166" stroke="#D8DDE6"/>
<path d="m5.9184 170.06v-12.212c0-0.67442 0.53986-1.2212 1.2057-1.2212h13.564c0.66586 0 1.2057-0.54681 1.2057-1.2212v-148.99c0-3.541 2.834-6.4115 6.33-6.4115h231.01c3.4984 0 6.333 2.8739 6.33 6.4167l-0.11846 149.29c-6.03e-4 0.67473 0.53956 1.2221 1.2057 1.2221h13.262c0.66586 0 1.2057 0.54681 1.2057 1.2212v12.823" stroke="#CFD7E6"/>
<path d="m32.551 156.74v-138.77c0-3.2979 2.5584-5.9718 5.7143-5.9718h208.54c3.1577 0 5.7167 2.6767 5.7143 5.9767l-0.10576 138.66-87.05 0.031461c-0.6219 3.05e-4 -1.1417 0.52171-1.1995 1.2035l-0.24707 2.9027c-0.058152 0.68207-0.57791 1.2032-1.2001 1.2032l-39.988 3.05e-4c-0.6219 0-1.142-0.5214-1.1998-1.2032l-0.24707-2.9018c-0.058152-0.68237-0.57821-1.2038-1.2004-1.2035l-82.364 0.030545" stroke="#CFD7E6"/>
</g>
<path d="m40 17h209c2.2091 0 4 1.7909 4 4v137h-84.453c-1.8805-0.13379-3.131 0.33048-3.7515 1.3928-0.62044 1.0623-0.85327 2.3357-0.69849 3.8201h-38.767c0.13444-1.9969-0.10433-3.3873-0.71631-4.1711-0.61198-0.78385-1.6707-1.1311-3.176-1.0417h-85.438v-137c0-2.2091 1.7909-4 4-4z" fill="url(#e)" fill-opacity=".71" fill-rule="nonzero"/>
<g transform="translate(103 32)" fill-rule="nonzero">
<rect x=".5" y="14.5" width="84" height="84" rx="2" fill="#EFF8FB" stroke="#FFF"/>
<g transform="translate(18 42)" fill="#FFF">
<rect width="51" height="8" rx="2"/>
<rect y="11" width="51" height="8" rx="2"/>
<rect y="22" width="51" height="8" rx="2"/>
</g>
<rect x="18" y="76" width="51" height="8" rx="2" fill="url(#a)"/>
</g>
<g transform="translate(128 28)">
<use fill="url(#a)" fill-rule="nonzero" xlink:href="#d"/>
<g transform="translate(9.818 8.416)">
<path d="m0.014695 4.5356c0-0.12187 6.4032e-4 -0.12251 0.12027-0.12251 0.7385-2.1344e-4 1.4771 0 2.2155 0 0.73839 0 1.477-2.1344e-4 2.2155 0 0.12486 0 0.1254 5.336e-4 0.1254 0.12668 1.0672e-4 0.85034 1.0672e-4 1.701 0 2.5512 0 0.12668-5.3359e-4 0.12721-0.12508 0.12721-1.4769 3.2015e-4 -2.9539 3.2015e-4 -4.4308 0-0.12017 0-0.12081-6.4032e-4 -0.12081-0.12219-3.2016e-4 -0.85333-3.2016e-4 -1.7069 0-2.5604m-0.014695 2.8245c0.45313-0.047277 0.90722-0.021451 1.3606-0.016755 2.5435 0.026253 5.0867 0.0046956 7.6302 0.013874 1.0086 0.0036285 2.0059 0.1048 2.9802 0.37864 0.73828 0.20746 1.4331 0.50681 2.0305 0.99943 0.59891 0.49379 0.97595 1.1184 1.0755 1.8953 0.067233 0.52399-0.0397 1.0247-0.24065 1.5068-0.33371 0.79965-0.87627 1.4368-1.5542 1.9655-0.91875 0.71651-1.9627 1.1656-3.0893 1.4346-0.22923 0.054854-0.46241 0.094874-0.69368 0.14108-0.017289 0.003415-0.035644 0.010352-0.059763-0.0088577 0.1747-0.067126 0.34662-0.1286 0.51215-0.20554 0.69752-0.32379 1.3126-0.75088 1.7623-1.3881 0.251-0.3558 0.42218-0.74575 0.43467-1.1852 0.016328-0.567-0.24492-0.99943-0.69837-1.3221-0.38547-0.27427-0.82611-0.4114-1.285-0.49838-0.44758-0.084949-0.90071-0.10768-1.3546-0.10811-2.4589-0.0021344-4.9176-0.0017075-7.3762 0.0010672-0.10523 0-0.15869-0.024652-0.19658-0.13212-0.36669-1.0388-0.74021-2.0753-1.112-3.1124-0.040874-0.11408-0.083668-0.2271-0.12582-0.34065v-0.018036z" fill="#FFF"/>
<path d="m16.026 13.573c-0.034577 1.2081-0.32838 2.3394-1.0192 3.3475-0.48258 0.70435-1.1066 1.2542-1.8506 1.6706-0.75387 0.42197-1.5659 0.67148-2.413 0.81715-0.29775 0.051225-0.59667 0.095941-0.89495 0.14364h-9.8115c0.42293-1.1763 0.84618-2.3526 1.2669-3.5294 0.024652-0.068834 0.059763-0.091992 0.1318-0.091779 1.5323 0.0036284 3.0643-8.538e-4 4.5965 0.010458 0.49625 0.0036284 0.9926 0.0042688 1.4889 0.0091779 0.20874 0.0021343 0.41781-0.029028 0.62495-0.022091 0.2891 0.0094981 0.57394-0.020597 0.85909-0.050265 0.96069-0.1001 1.8887-0.32923 2.775-0.71811 0.59058-0.25911 1.1451-0.57959 1.6459-0.98779 0.59272-0.48301 1.0976-1.0406 1.4392-1.733 0.26957-0.5463 0.39497-1.1227 0.35655-1.7318-0.017182-0.27309-0.073956-0.53904-0.17417-0.79506-0.011632-0.029668-0.032656-0.057949-0.023585-0.10405 0.083134 0.10234 0.13842 0.21205 0.19647 0.31952 0.39646 0.73295 0.62559 1.5192 0.73754 2.342 0.049838 0.36615 0.078652 0.73412 0.068087 1.1035" fill="#FFF"/>
<g transform="translate(0 .022)">
<mask id="b" fill="#fff">
<use xlink:href="#c"/>
</mask>
<path d="m16.534 0.14294c-0.095407 0.2065-0.15933 0.42442-0.23532 0.63775-0.39401 1.1064-0.78503 2.2138-1.1771 3.3208-0.05368 0.15143-0.05368 0.15143-0.21685 0.15143h-14.734c-0.16232 0-0.16264-3.2016e-4 -0.11077-0.14749 0.45932-1.2983 0.91853-2.5967 1.3774-3.895 0.014087-0.0397 0.023158-0.08132 0.034577-0.12198 4.9935 0 9.987 0 14.981 8.5376e-4 0.035217 0 0.096581-0.027427 0.081854 0.05368" fill="#FFF" mask="url(#b)"/>
</g>
</g>
</g>
</g>
</g>
</svg>
